<?xml version="1.0" encoding="UTF-8"?>
<svg id="_Слой_1" data-name="Слой 1" xmlns="http://www.w3.org/2000/svg" viewBox="0 0 2000 2000">
  <path class="cls-8" d="M112.62,1611.79s166.89-704.05,353.55-763.28c186.66-59.23,235.19,66.81,323.81,58.7,88.62-8.12,385.99-256.5,492.22-355.05,180.91-167.84,688.6-265.18,582.7-10.05-88.66,213.59-404.32,551.51-358.05,644.26,9,18.04,201.28-105.13,253.17-89.07,232.62,72.03-78.3,515.19-78.3,515.19l-1569.08-.69Z"/>
  <path class="cls-2" d="M1917.02,630.4h-177.87v-64.06h46.87c.83,0,1.5-.67,1.5-1.5s-.67-1.5-1.5-1.5h-108.87v-60.32h163.87c.83,0,1.5-.67,1.5-1.5s-.67-1.5-1.5-1.5h-314.03c-.83,0-1.5,.67-1.5,1.5s.67,1.5,1.5,1.5h33.49v60.32h-88.49c-.83,0-1.5,.67-1.5,1.5s.67,1.5,1.5,1.5h158.16v64.06h-27.16c-.83,0-1.5,.67-1.5,1.5s.67,1.5,1.5,1.5h314.03c.83,0,1.5-.67,1.5-1.5s-.67-1.5-1.5-1.5Zm-353.54-67.06v-60.32h110.67v60.32h-110.67Zm172.67,67.06h-103v-64.06h103v64.06Z"/>
  <path class="cls-2" d="M436.5,1404.31h-88.49v-60.32h33.49c.83,0,1.5-.67,1.5-1.5s-.67-1.5-1.5-1.5H174.98c-.83,0-1.5,.67-1.5,1.5s.67,1.5,1.5,1.5h56.36v60.32H122.48c-.83,0-1.5,.67-1.5,1.5s.67,1.5,1.5,1.5h46.87v64.06h-49.36c-.83,0-1.5,.67-1.5,1.5s.67,1.5,1.5,1.5h185.52c.83,0,1.5-.67,1.5-1.5s-.67-1.5-1.5-1.5h-27.16v-64.06h158.16c.83,0,1.5-.67,1.5-1.5s-.67-1.5-1.5-1.5Zm-161.16,67.06h-103v-64.06h103v64.06Zm-41-67.06v-60.32h110.67v60.32h-110.67Z"/>
  <g>
    <polygon class="cls-2" points="1144.66 1542.29 1144.61 1573.7 1101.09 1573.7 1097.46 1543.9 1144.66 1542.29"/>
    <path class="cls-9" d="M1146.23,1575.33h-46.58l-4.02-32.99,50.66-1.73-.06,34.72Zm-43.7-3.25h40.45l.05-28.1-43.74,1.49,3.24,26.61Z"/>
    <path class="cls-7" d="M1146.99,1571.81s62.89,19.96,65.06,36.41h-112.78v-36.41h47.71Z"/>
    <polygon class="cls-2" points="969.24 1542.98 968.06 1574.75 924.54 1574.75 922.48 1542.29 969.24 1542.98"/>
    <path class="cls-9" d="M969.62,1576.38h-46.61l-2.27-35.74,50.19,.74-1.31,35Zm-43.56-3.25h40.42l1.07-28.55-43.34-.63,1.85,29.18Z"/>
    <path class="cls-7" d="M970.44,1572.86s62.89,19.96,65.06,36.41h-112.77v-36.41h47.71Z"/>
    <polygon class="cls-9" points="1039.61 1603.02 1039.61 1612.48 919.79 1612.48 919.79 1601.66 1039.61 1603.02"/>
    <polygon class="cls-9" points="1095.76 1601.34 1095.76 1611.43 1215.58 1611.43 1215.58 1600.61 1095.76 1601.34"/>
    <polygon class="cls-9" points="983.68 1548.76 914.41 1548.76 908.51 993.62 1108.16 1028.09 1155.67 1548.76 1089 1548.76 1019.2 1202.83 1027.19 1126.98 983.68 1548.76"/>
    <path class="cls-7" d="M936.57,1538.17s-.02,0-.04,0c-.9-.02-1.61-.76-1.59-1.66l10.23-459.78c.02-.9,.79-1.6,1.66-1.59,.9,.02,1.61,.76,1.59,1.66l-10.23,459.78c-.02,.89-.74,1.59-1.62,1.59Z"/>
    <path class="cls-7" d="M1104.7,1536.26l-71.01-403.54c-.08-.48-.38-.88-.77-1.11l3.86-22.8,.02-.13v-45.5c0-.9-.73-1.63-1.63-1.63s-1.63,.73-1.63,1.63v45.23l-15.95,94.15c-.15,.89,.45,1.72,1.33,1.88,.09,.02,.18,.02,.27,.02,.78,0,1.47-.56,1.6-1.36l10.78-63.6,69.91,397.32c.14,.79,.83,1.34,1.6,1.34,.09,0,.19,0,.28-.03,.88-.16,1.48-1,1.32-1.88Z"/>
    <path class="cls-2" d="M1057.86,1063.18s-.67,45.96-8.67,47.46h-76.5c-2.5-2.41-6.5-16.14,17.5-16.64,24-.5,31.14,0,31.14,0l-1.14-30.82h37.67Z"/>
    <path class="cls-9" d="M1049.32,1112.04h-77.19l-.4-.39c-1.72-1.66-3.26-6.13-1.66-10.2,1.52-3.87,6.23-8.54,20.1-8.83,18.06-.38,26.55-.19,29.72-.07l-1.14-30.75h40.53l-.02,1.42c-.16,11.05-1.34,47.22-9.8,48.81l-.13,.02Zm-75.98-2.79h75.69c4.1-1.13,6.99-23.68,7.4-44.67h-34.8l1.14,30.92-1.55-.11c-.07,0-7.41-.49-31.01,0-12.33,.26-16.36,3.98-17.56,7.06-1.09,2.78-.1,5.62,.68,6.79Z"/>
    <path class="cls-2" d="M1150.58,695.52s-18.47,49.74-15.89,56.48c2.58,6.73,3,32.72,3,32.72l-50.11,96.34-82.21-30.65,17.55-87.84s46.88-21.11,50.92-26.93c5.59-8.06,18.3-55.69,18.3-55.69l58.43,15.57Z"/>
    <path class="cls-9" d="M1088.32,882.98l-84.71-31.58,17.97-89.9,.72-.33c18.69-8.41,47.5-22.39,50.29-26.41,5.38-7.75,17.95-54.74,18.08-55.21,.22-.82,1.07-1.31,1.89-1.09,.82,.22,1.31,1.06,1.09,1.89-.52,1.96-12.84,47.99-18.52,56.18-4,5.77-43.49,23.81-50.83,27.13l-17.14,85.77,79.7,29.71,49.3-94.78c-.07-3.25-.61-25.84-2.9-31.81-2.65-6.93,12.76-49.17,15.88-57.57,.3-.8,1.18-1.21,1.98-.91,.8,.3,1.21,1.18,.91,1.98-7.06,19.02-17.62,50.88-15.89,55.39,2.65,6.91,3.09,32.18,3.11,33.25v.39s-.17,.35-.17,.35l-50.74,97.55Z"/>
    <path class="cls-9" d="M1170.48,590.24c10,4.57,34.43,15.37,28.22,33.92-7.08,21.16-19.76,47.16-26.68,60.78-2.73,5.37-8.97,7.93-14.68,6.02l-63.88-21.38c-5.85-1.96-9.3-8-8.02-14.05,4.32-20.36,13.84-63.36,18.26-68.84,15.04-18.66,50.94-3.69,66.77,3.55Z"/>
    <path class="cls-2" d="M1093.78,685.05c-2.25-4.74,1.11-19.38,6.13-35.69,.14-.47,.04-.98-.28-1.34-3.36-3.9-7.64-11.28-4.78-19.24,2.48-6.9,7.02-3.76,10.21-.2,.57,.63,1.6,.4,1.89-.43,6.84-19.4,13.63-36.14,13.63-36.14l75.91,25.41s-5.97,17.34-13.23,36.6c-.33,.86-19.08,46.32-22.32,49.92-1.76,1.96-4.3,3.23-7.38,3.92,0,0-6.2,2.35-33.79-6.88l-26.02-15.93Z"/>
    <path class="cls-9" d="M1150.88,709.68c-4.25,0-13.35-1.13-31.57-7.23-.81-.27-1.25-1.15-.98-1.96,.27-.81,1.15-1.25,1.96-.98,26.12,8.74,32.74,6.9,32.8,6.88l.16-.05c2.89-.65,5.1-1.81,6.56-3.45,2.91-3.24,21.33-47.63,22.02-49.43,5.96-15.81,11.1-30.49,12.7-35.08l-73.04-24.45c-1.75,4.36-7.42,18.71-13.07,34.72-.33,.92-1.09,1.59-2.03,1.78-.92,.18-1.85-.12-2.47-.82-2.13-2.37-4.05-3.6-5.26-3.35-1.11,.22-1.89,1.77-2.34,3.04-2.86,7.95,2.19,15.04,4.49,17.71,.67,.77,.88,1.82,.58,2.8-7.75,25.15-7.22,32.45-6.22,34.57,.37,.77,.04,1.7-.73,2.06-.77,.37-1.7,.04-2.06-.73-2.15-4.54-.18-16.55,6.03-36.74-2.68-3.13-8.4-11.29-5.01-20.72,1.06-2.94,2.62-4.64,4.66-5.03,2.28-.45,4.86,.83,7.67,3.78,6.7-18.95,13.37-35.42,13.44-35.58l.55-1.35,78.77,26.36-.51,1.48c-.06,.17-6.06,17.59-13.24,36.64-.17,.44-19.03,46.42-22.61,50.41-1.89,2.11-4.62,3.58-8.12,4.38-.37,.11-1.3,.32-3.13,.32Z"/>
    <path class="cls-9" d="M1140.39,647.69c-.32,0-.64-.06-.96-.18-1.35-.53-2.02-2.06-1.49-3.41l.6-1.54c.53-1.35,2.06-2.02,3.41-1.49,1.35,.53,2.02,2.06,1.49,3.41l-.6,1.54c-.41,1.04-1.4,1.67-2.45,1.67Z"/>
    <path class="cls-9" d="M1171.93,659.64c-.29,0-.58-.05-.86-.15-1.37-.48-2.1-1.97-1.63-3.35l.64-1.84c.48-1.37,1.97-2.1,3.35-1.63,1.37,.48,2.1,1.97,1.63,3.35l-.64,1.84c-.38,1.09-1.4,1.77-2.49,1.77Z"/>
    <path class="cls-9" d="M1128.91,631.88c-.53,0-1.07-.2-1.48-.61-.83-.82-.84-2.15-.02-2.98,7.99-8.11,21.36-3.77,21.93-3.58,1.1,.37,1.7,1.56,1.33,2.66-.37,1.1-1.55,1.69-2.66,1.33h0c-.11-.04-11.46-3.69-17.6,2.54-.41,.42-.96,.63-1.5,.63Z"/>
    <path class="cls-9" d="M1154.51,670.17c-.99,0-1.83-.07-2.34-.13-.97-.11-1.67-.99-1.56-1.96,.11-.97,1-1.67,1.96-1.57,2.75,.3,5.49-.15,5.81-.73,.45-1.02,1.16-7.34,1.74-12.41,1.09-9.71,1.84-15.74,2.9-17.58,.57-.99,1.51-1.62,2.71-1.8,5.26-.83,14.7,7.49,16.55,9.16,.73,.66,.78,1.78,.12,2.5-.66,.72-1.78,.78-2.5,.12-7.86-7.14-13.05-8.79-13.78-8.24-.79,1.38-1.79,10.31-2.46,16.23-.99,8.78-1.46,12.48-2.16,13.73-1.23,2.23-4.54,2.67-6.97,2.67Z"/>
    <path class="cls-9" d="M1177.4,620.26c9.98,2.7,29.71,5.1,34.19-14.85,4.48-19.96-1.61-14.21-1.61-14.21,0,0-5.44,2.98-7.03,2.65-1.59-.33,1.21,1.79,1.34-15.95,0,0-13.63-7.53-22.9-.45-9.26,7.08-12.09,.51-12.94-4.85-.73-4.56-8.51-1.51-10.99,2.08-3.72,3.73-25.26-5.93-32.95-4.78-12.17,1.83-16.51,2.87-20.8,16.78-.82,2.67-5.18,29.93-5.18,29.93l17.36-24.4s45.19,23.63,61.51,28.05Z"/>
    <path class="cls-9" d="M1157.04,680.98c.52,1.3-1.51,5.27-5.16,3.69-9.36-4.07-15.59-14.12-13.48-12.75,.83,.54,6.4,4.23,10.28,6.2,5.27,2.68,7.77,1.39,8.36,2.87Z"/>
    <path class="fill-blue-500 " d="M1076.05,737.51s63.23,22.35,65.72,22.51c2.5,.16-39.35,286.39-39.35,286.39l-132.89-42.67,106.52-266.22Z"/>
    <path class="cls-9" d="M987.96,1076.9c-.89,0-1.61-.72-1.61-1.61v-234.46c0-.89,.72-1.61,1.61-1.61s1.61,.72,1.61,1.61v234.46c0,.89-.72,1.61-1.61,1.61Z"/>
    <path class="cls-2" d="M1169.96,890.96c4.77,8.49,108.17-67.39,109.71-73.17,3.52-13.25-4.96-25.52-4-29.44,1.5-6.14,14.24,13.16,16.99,18.77,.47,.96,1.22,1.03,2.15,.51,11.15-6.23,40.65-24.09,42.2-17.87,1.42,5.7-28.06,19.8-27.83,21.2,.61,3.69,3.32,17.19-11.5,23.17-9.57,3.86-35.51,96.05-85.46,86.3-49.95-9.74-47.01-37.96-42.25-29.46Z"/>
    <path class="cls-9" d="M1219.63,922.79c-2.51,0-5.09-.25-7.74-.76-36.99-7.21-45.76-24.57-46.01-30.65-.11-2.68,1.25-3.36,1.84-3.52,.74-.21,2.17-.2,3.55,2.15,2.5,.59,16.72-5.55,55.24-32.6,27.29-19.16,50.05-37.22,51.6-40.1,2.13-8.13-.52-15.92-2.46-21.61-1.17-3.43-2.01-5.9-1.57-7.73,.49-1.99,1.87-2.35,2.44-2.41,.08,0,.16-.01,.25-.01,5.48,0,16.07,18.58,17.23,20.67h0c1.37-.77,3.03-1.71,4.88-2.77,21.05-12.02,33.31-18.17,37.83-16.24,.96,.41,1.62,1.18,1.86,2.17,1.06,4.24-6.39,9.5-21.44,18.31-2.44,1.43-5.16,3.02-6.24,3.8,1.86,11.9-2.38,20.02-12.63,24.16-2.03,.82-6.45,9.6-10.73,18.1-13.23,26.29-34.75,69.05-67.92,69.05Zm-50.27-30.12c.22,.88,.64,2.01,1.38,3.38,2.68,4.92,12.1,17,41.77,22.79,35.17,6.86,58.31-39.1,72.13-66.56,6.25-12.41,9.38-18.43,12.42-19.66,13.22-5.34,11.21-17.19,10.56-21.08l-.05-.31c-.26-1.56,.67-2.1,7.93-6.36,4.27-2.5,9.59-5.62,13.74-8.58,6.44-4.6,6.19-6.12,6.18-6.13-.13-.07-2.1-1.02-13.59,4.54-7.11,3.44-15.33,8.14-21.33,11.57-1.86,1.06-3.52,2.01-4.9,2.78-.93,.52-1.82,.66-2.63,.4-.53-.16-1.26-.58-1.77-1.62-2.82-5.74-11.07-17.45-13.98-18.91-.08,1.03,.73,3.41,1.51,5.71,1.96,5.76,4.93,14.45,2.51,23.57-1.17,4.41-35.7,29.7-48.91,39.07-14.61,10.37-49.7,34.62-59.93,35.92-1.46,.19-2.42-.09-3.05-.53Zm108.74-75.3h0s0,0,0,0Zm-.78-28.82h0Z"/>
    <path class="cls-7" d="M865.4,1019.26s84.53-260.69,119.97-284.39c35.43-23.7,46.72-19.82,75.7-19.59,28.98,.23,29.4,75.6,20.17,101.29-11.73,32.64-72.85,234.87-72.85,234.87l-142.98-32.18Z"/>
    <path class="cls-7" d="M1074.35,1066.29s30.06-205.79,42.32-247.5c7.7-26.2,14.92-81.46,30.07-76.66,32.69,10.36,51.49,127.13,51.49,127.13l65.54-53.68,39.34,56.07s-64.26,107-113.03,106.52c-21.49-.21-47.1-58.6-47.1-58.6l-19,157.89-49.63-11.17Z"/>
    <polygon class="cls-7" points="993.72 833.15 987.96 1083.22 1061.08 1084.23 1065.12 815.83 993.72 833.15"/>
    <path class="cls-9" d="M1062.8,1086l-76.63-1.06,5.8-251.84c.02-.97,.82-1.76,1.79-1.71,.97,.02,1.73,.82,1.71,1.79l-5.72,248.31,69.61,.96,4.01-266.65c.01-.96,.79-1.72,1.75-1.72h.03c.97,.01,1.74,.81,1.72,1.78l-4.07,270.14Z"/>
    <path class="cls-9" d="M1142.44,911.4c-.07,0-.15,0-.23-.01-.96-.12-1.63-1-1.51-1.96l9.94-77.08c.12-.96,1-1.64,1.96-1.51,.96,.12,1.63,1,1.51,1.96l-9.94,77.08c-.11,.88-.87,1.53-1.73,1.53Z"/>
  </g>
  <g>
    <path class="cls-7" d="M586.98,1351.62h-178.62c-23.98,0-43.41-19.44-43.41-43.41v-367.12c0-23.98,19.44-43.41,43.41-43.41h141.75c23.98,0,43.41,19.44,43.41,43.41v332.2l36.87,34.91c0,23.98-19.44,43.41-43.41,43.41Z"/>
    <path class="cls-9" d="M586.98,1353.37h-178.62c-24.9,0-45.16-20.26-45.16-45.16v-367.12c0-24.9,20.26-45.16,45.16-45.16h141.75c24.9,0,45.16,20.26,45.16,45.16v331.45l36.87,34.91v.75c0,24.9-20.26,45.16-45.16,45.16Zm-178.62-453.94c-22.97,0-41.66,18.69-41.66,41.66v367.12c0,22.97,18.69,41.66,41.66,41.66h178.62c22.72,0,41.26-18.29,41.66-40.92l-36.86-34.91v-332.96c0-22.97-18.69-41.66-41.66-41.66h-141.75Z"/>
    <path class="cls-9" d="M488.98,1286.48h-.03l-74.48,1.27c9.91-120.79-19.63-300.75-19.93-302.56-.16-.95-1.06-1.6-2.01-1.44-.95,.16-1.6,1.06-1.44,2.01,.3,1.8,29.83,181.68,19.87,302.05l-15.88,.27c-.97,.02-1.74,.81-1.72,1.78,.02,.96,.8,1.72,1.75,1.72h.03l93.88-1.6c.97-.02,1.74-.81,1.72-1.78-.02-.96-.8-1.72-1.75-1.72Z"/>
    <path class="cls-9" d="M533.82,1576.89h-16.55v-204.78c10.52-2.14,18.37-10.49,18.37-20.49h-47.35c0,10,7.85,18.35,18.37,20.49v204.78h-16.55c-16.44,0-29.76,13.33-29.76,29.76v5.83h103.24v-5.83c0-16.44-13.33-29.76-29.76-29.76Z"/>
  </g>
  <g>
    <polygon class="cls-2" points="854.45 1493.64 883.18 1565.59 833.24 1565.59 808.61 1519.67 854.45 1493.64"/>
    <path class="cls-9" d="M886.03,1567.52h-53.95l-26.06-48.6,49.39-28.05,30.61,76.66Zm-51.64-3.86h45.94l-26.86-67.26-42.27,24.01,23.19,43.25Z"/>
    <path class="fill-blue-500" d="M885.92,1563.27s72.18,24.45,74.67,44.59h-129.43v-44.59h54.76Z"/>
    <polygon class="cls-2" points="691.82 1526.42 685.98 1566.18 638.71 1566.18 643.71 1522.9 691.82 1526.42"/>
    <path class="cls-9" d="M687.65,1568.1h-51.1l5.46-47.27,52.03,3.82-6.39,43.45Zm-46.77-3.86h43.44l5.3-36.05-44.2-3.24-4.54,39.29Z"/>
    <path class="fill-blue-500" d="M688.72,1563.85s72.18,24.45,74.67,44.59h-129.43v-44.59h54.76Z"/>
    <polygon class="cls-9" points="768.1 1600.79 768.1 1612.37 630.58 1612.37 630.58 1599.13 768.1 1600.79"/>
    <polygon class="cls-9" points="827.12 1599.44 827.12 1611.79 964.64 1611.79 964.64 1598.55 827.12 1599.44"/>
    <path class="cls-9" d="M693.57,1580.17c-.75,0-1.45-.48-1.69-1.23-.3-.93,.22-1.93,1.15-2.22l24.95-7.97c.93-.3,1.93,.22,2.23,1.15,.3,.93-.22,1.93-1.15,2.22l-24.95,7.97c-.18,.06-.36,.08-.54,.08Z"/>
    <path class="cls-9" d="M706.05,1588.13c-.75,0-1.45-.48-1.69-1.23-.3-.93,.22-1.93,1.15-2.22l24.95-7.97c.93-.3,1.93,.22,2.23,1.15,.3,.93-.22,1.93-1.15,2.22l-24.95,7.97c-.18,.06-.36,.08-.54,.08Z"/>
    <path class="cls-9" d="M723.34,1596.1c-.75,0-1.45-.48-1.69-1.23-.3-.93,.22-1.93,1.15-2.22l24.95-7.97c.93-.3,1.93,.22,2.23,1.15,.3,.93-.22,1.93-1.15,2.22l-24.95,7.97c-.18,.06-.36,.08-.54,.08Z"/>
    <path class="cls-9" d="M887.23,1576.88c-.75,0-1.45-.48-1.69-1.23-.3-.93,.22-1.93,1.15-2.22l24.95-7.97c.93-.29,1.93,.22,2.23,1.15,.3,.93-.22,1.93-1.15,2.22l-24.95,7.97c-.18,.06-.36,.08-.54,.08Z"/>
    <path class="cls-9" d="M899.71,1584.84c-.75,0-1.45-.48-1.69-1.23-.3-.93,.22-1.93,1.15-2.22l24.95-7.97c.93-.3,1.93,.22,2.23,1.15,.3,.93-.22,1.93-1.15,2.22l-24.95,7.97c-.18,.06-.36,.08-.54,.08Z"/>
    <path class="cls-9" d="M917,1592.81c-.75,0-1.45-.48-1.69-1.23-.3-.93,.22-1.93,1.15-2.22l24.95-7.97c.93-.3,1.93,.22,2.23,1.15,.3,.93-.22,1.93-1.15,2.22l-24.95,7.97c-.18,.06-.36,.08-.54,.08Z"/>
    <path class="cls-6" d="M638.81,1194.32s158.65-7.04,162.65,31.75c4,38.78-93.25,313.1-93.25,313.1l-76.25-10.83s54.86-201.15,52.48-215.58c-9.4-57.08-228.65-126.4-228.65-126.4l183.02,7.97Z"/>
    <path class="fill-blue-gray-700" d="M427.12,1164.07s-19.07,125.18,72.1,132.89c92.06,7.79,180.38,6.4,200.42,26.06,5.87,5.76,109.18,216.14,109.18,216.14l72.16-28.45s-120.74-260.34-130-272.86c-16.68-22.54-29.32-34.71-112.17-43.53-74.83-7.97-211.69-30.26-211.69-30.26Z"/>
    <path class="cls-2" d="M644.67,828.62s-16.57,48.86-13.56,55.23c3.01,6.37,25.36,21.48,25.36,21.48l-67.52,105.24-86.55-25.68,13.7-85.56s47.4-22.58,51.28-28.39c5.37-8.04,16.1-54.59,16.1-54.59l61.2,12.26Z"/>
    <path class="cls-9" d="M589.61,1012.39l-1.11-.33-87.85-26.06,14.04-87.7,.73-.35c18.18-8.66,48.01-23.88,50.67-27.85,5.16-7.71,15.77-53.62,15.88-54.08,.19-.83,1.02-1.35,1.85-1.16,.83,.19,1.35,1.02,1.16,1.85-.44,1.91-10.85,46.92-16.32,55.1-3.85,5.76-43.75,25.03-51.17,28.58l-13.36,83.42,84.15,24.96,66.09-103.01c-5.08-3.5-21.86-15.36-24.64-21.25-3.12-6.6,10.7-48.13,13.5-56.38,.27-.81,1.15-1.24,1.96-.96,.81,.27,1.24,1.15,.96,1.96-6.33,18.66-15.63,49.85-13.63,54.08,2.32,4.92,18.71,16.73,24.83,20.86l1.25,.84-68.96,107.49Z"/>
    <path class="cls-9" d="M651.41,726.79c10.77,3.44,37.05,11.48,32.56,29.9-5.12,21.01-15.51,47.22-21.24,60.96-2.26,5.42-8.43,8.48-14.5,7.19l-68-14.43c-6.23-1.32-10.4-6.8-9.7-12.74,2.36-19.98,7.75-62.21,11.75-67.91,13.58-19.37,52.09-8.43,69.14-2.98Z"/>
    <path class="cls-2" d="M582.15,825.26c-2.8-4.34-.84-18.73,2.65-34.88,.1-.47-.06-.94-.42-1.26-3.86-3.43-9.03-10.11-6.9-18.04,1.84-6.87,6.84-4.29,10.5-1.17,.65,.56,1.69,.23,1.91-.6,5.05-19.3,10.33-36.04,10.33-36.04l80.8,17.14s-4.37,17.24-9.87,36.44c-.25,.86-14.9,46.34-17.86,50.11-1.61,2.05-4.1,3.51-7.19,4.48,0,0-6.15,2.86-35.52-3.38l-28.44-12.81Z"/>
    <path class="cls-9" d="M640.01,843.65c-5.3,0-14.42-.82-29.75-4.07-.84-.18-1.37-1-1.19-1.84,.18-.84,1-1.38,1.84-1.19,27.89,5.92,34.52,3.49,34.59,3.47l.15-.06c2.92-.91,5.09-2.24,6.44-3.95,2.63-3.35,17.06-47.78,17.59-49.59,4.48-15.66,8.25-30.17,9.45-34.83l-77.85-16.52c-1.35,4.35-5.72,18.69-9.9,34.62-.24,.91-.92,1.62-1.82,1.9-.9,.29-1.87,.09-2.59-.52-2.5-2.12-4.67-3.12-5.93-2.72-1.11,.35-1.74,1.88-2.07,3.11-2.11,7.85,3.79,14.14,6.43,16.48,.78,.69,1.13,1.74,.91,2.75-5.38,24.86-4.11,31.79-2.87,33.71,.46,.72,.26,1.68-.46,2.14-.72,.46-1.68,.26-2.14-.46-.99-1.54-4.01-6.21,2.41-35.91-3.11-2.79-9.8-10.09-7.27-19.51,.77-2.88,2.17-4.65,4.14-5.27,2.31-.72,5.13,.27,8.41,2.95,4.96-18.88,10.16-35.38,10.21-35.55l.42-1.34,83.75,17.77-.4,1.56c-.04,.17-4.44,17.48-9.88,36.49-.12,.44-14.85,46.46-18.13,50.64-1.73,2.2-4.38,3.88-7.88,4.98-.53,.21-2.31,.75-6.62,.75Z"/>
    <path class="cls-9" d="M617.64,784.92c-.25,0-.51-.04-.76-.11-1.39-.42-2.18-1.88-1.76-3.28l.46-1.54c.42-1.39,1.88-2.18,3.28-1.76,1.39,.42,2.18,1.88,1.76,3.28l-.46,1.54c-.34,1.14-1.39,1.87-2.52,1.87Z"/>
    <path class="cls-9" d="M654.84,792.92c-.21,0-.43-.03-.65-.08-1.41-.36-2.26-1.79-1.9-3.2l.47-1.83c.36-1.41,1.79-2.26,3.2-1.9,1.41,.36,2.26,1.79,1.9,3.2l-.47,1.83c-.3,1.19-1.37,1.98-2.55,1.98Z"/>
    <path class="cls-9" d="M626.61,774.04c-.42,0-.84-.12-1.21-.39-.07-.05-5.55-3.81-12.43-2.8-1.15,.17-2.22-.63-2.39-1.78-.17-1.15,.63-2.22,1.78-2.39,8.61-1.27,15.2,3.33,15.48,3.53,.95,.67,1.17,1.99,.5,2.93-.41,.58-1.06,.88-1.72,.88Z"/>
    <path class="cls-9" d="M619.77,810.22c-1.71,1.49,3.34,8.9,10.99,10.19,12.48,2.11,18.23-4.97,15.11-5.05-1.22-.03-6.29,1.4-13.73,0-8.03-1.51-11.23-6.14-12.37-5.14Z"/>
    <path class="cls-9" d="M635.13,807.29c-.08,0-.16,0-.23,0-.98-.01-1.76-.81-1.75-1.79,.01-.97,.8-1.75,1.77-1.75,.06,0,.13,0,.19,0,2.86,0,5.5-.68,5.82-1.27,.63-1.36,.67-1.45-.66-9.73-.3-1.85-.65-4.09-1.08-6.82l-.02-.15c-.04-.63-.39-6.23,1.27-9.67,.6-1.25,1.99-2.1,4.11-2.52,5.43-1.08,14.75,.62,19.45,4.8,.73,.65,.8,1.77,.15,2.5-.65,.73-1.77,.8-2.5,.15-3.44-3.06-10.5-4.53-15.06-4.15-2.03,.17-2.84,.65-2.97,.81-1.03,2.13-1.01,6.26-.91,7.77,.42,2.69,.77,4.9,1.06,6.73,1.38,8.64,1.49,9.34,.37,11.77-1.4,3.04-6.98,3.33-9.02,3.33Z"/>
    <path class="cls-9" d="M591.61,730.27s-.65-20.38,13.02-17.94c13.67,2.45,15.97-11.09,28.77-8.7,12.81,2.39,5.62,5.84,18.75,9.82,13.12,3.98,20.14-3.13,23.24,7.5,3.11,10.63,13.64,8.57,17.86,15.89,4.22,7.31,2.27,15.43-4.39,17.74-6.66,2.31,3,8.49-2.6,13.99-5.6,5.51-27.65,3.58-30.89-5.23-3.24-8.82-4.88-14.79-13.08-15.71-8.19-.92-18.42,2.72-23.9,.8-5.48-1.92-12.7-8.34-15.83-6.97-3.13,1.36-6.62,6.3-9.6,5.72-2.99-.58-11.74-10.93-1.34-16.91Z"/>
    <path class="cls-9" d="M604.45,733.24s-3.65,9.8-7.62,14.04-9.37,6.95-9.29,14.01c.09,7.06-16.85-3.75-12.15-11.05,9.69-15.05-4.92-19.49,4.68-26.96,5.73-4.46,15.8-3.7,15.8-3.7l8.58,13.66Z"/>
    <path class="cls-9" d="M604.45,733.24s-3.65,9.8-7.62,14.04-9.37,6.95-9.29,14.01c.09,7.06-16.85-3.75-12.15-11.05,9.69-15.05-4.92-19.49,4.68-26.96,5.73-4.46,15.8-3.7,15.8-3.7l8.58,13.66Z"/>
    <path class="fill-blue-500" d="M542.15,869.57c-17.59-9.07-128.56,67.6-159.92,168.68-35.19,113.47,93.8,81.6,93.8,81.6l-19.92-126.6-32.17,181.84,206.81,19.22,21.74-135.1s-9.62,59.77,67.22,61.05c33.84,.57,81.74,0,81.74,0l5.52-51.68-86.21-12.26s-7.81-97.44-41.96-132.8c-16.11-16.69-29.37-26.52-36.33-28.21-20.94-5.1-10.99,20.33-100.33-25.75Z"/>
    <path class="cls-2" d="M665.34,1099.26l40.97-4.35,13.31,3.47,1.94,4.94s-21.89-1.29-34.83,2.65c-12.93,3.94-22.76,2.68-22.76,2.68l-.7-2.97,2.07-6.41Z"/>
    <path class="cls-2" d="M658.53,1112.64c-18.19-1.56-96.13,8.98-96.13,8.98l6.57-42.1s85.03,14.47,91.46,12.62c12.08-3.47,28.08-5.58,42.35-6.14,18.88-.74,36.5,3.78,36.21,8.92-.15,2.77-25.58,.56-32.09,3.18-18.39,7.38-35.41,15.67-48.37,14.55Z"/>
    <path class="cls-9" d="M559.87,1124.1l7.34-47.03,2.11,.36c32.53,5.54,85.87,13.88,90.52,12.67,11.45-3.29,27.47-5.62,42.85-6.22,16.25-.63,32.05,2.49,36.76,7.27,1.46,1.48,1.7,2.93,1.65,3.88-.19,3.38-4.9,3.46-16.27,3.65-6.38,.11-14.33,.24-17.14,1.37-2.95,1.18-5.86,2.39-8.73,3.58-15.03,6.22-29.22,12.1-40.61,11.12h0c-17.75-1.53-94.89,8.86-95.67,8.96l-2.81,.38Zm10.86-42.14l-5.81,37.19c14.34-1.9,77.33-10.01,93.79-8.61h0c10.37,.9,24.1-4.79,38.63-10.82,2.88-1.19,5.81-2.41,8.77-3.59,3.54-1.42,11.22-1.55,18.65-1.67,3.92-.07,9-.15,11.48-.52-3.69-3.33-17.73-6.44-33.37-5.82-15.06,.59-30.7,2.85-41.85,6.06-6.28,1.81-72.17-9.14-90.28-12.21Z"/>
    <path class="cls-2" d="M669.39,1101.64l42.44-6.26-1.96,.64s40.3,6.68-19.04,11.57c-13.61,1.12-24.61-.16-23.91,1.24l.39-.78,2.07-6.42Z"/>
    <path class="cls-9" d="M675.14,1112.46c-1.04,0-1.94-.76-2.09-1.82-.16-1.16,.64-2.23,1.8-2.39,4.89-.69,9.32-1.72,13.22-2.63,4.77-1.11,8.88-2.06,12.48-2.11,4.36-.05,17.34-.21,19.6-1.76-.02-.03-.03-.07-.06-.11-.96-1.32-9.39-4.55-17.77-4.61-9.59-.09-18.22,3.19-18.31,3.22-1.09,.42-2.31-.13-2.73-1.22-.42-1.09,.13-2.31,1.22-2.73,.38-.14,9.27-3.5,19.52-3.5,.11,0,.22,0,.32,0,8.07,.06,19.44,3.11,21.46,6.82,1.03,1.89,.65,3.31,.14,4.16-1.68,2.87-6.92,3.76-23.36,3.96-3.14,.04-7.04,.95-11.57,2-3.99,.93-8.51,1.98-13.59,2.7-.1,.01-.2,.02-.3,.02Z"/>
    <polygon class="fill-blue-500" points="524.03 873.55 553.08 859.11 600.64 890.75 579.97 907.21 524.03 873.55"/>
    <polygon class="fill-blue-500" points="657.76 903.11 644.04 881.02 600.64 890.75 611.91 912.1 657.76 903.11"/>
    <path class="cls-9" d="M661.17,904.6l-16.12-25.97-43.99,9.87-47.82-31.82-33.6,16.7,60.51,36.41,18.32-14.59c-2,33.03-14.85,235.77-31.31,288.97-.31,1.01,.25,2.07,1.26,2.39,.19,.06,.38,.09,.56,.09,.81,0,1.57-.53,1.82-1.34,16.19-52.33,28.85-247.17,31.31-287.21l8.66,16.41,50.4-9.88Zm-81.37,.04l-51.37-30.91,24.5-12.17,44.12,29.35-17.25,13.73Zm63.24-21.22l11.31,18.21-41.3,8.1-9.24-17.51,39.24-8.8Z"/>
    <path class="fill-blue-500" d="M453.82,1045.66l145.11,25.99-16.9,49.97s-100.5,2.91-122.01,0c-40.05-5.41-82.87-40.69-82.87-40.69l76.67-35.26Z"/>
    <path class="cls-9" d="M582.92,1120.96c-.21,0-.42-.03-.63-.1-1.03-.35-1.59-1.47-1.24-2.5l15.26-45.12-133.33-21.14,37.92-63.86c.56-.94,1.77-1.25,2.7-.69,.94,.56,1.25,1.77,.69,2.7l-34.95,58.86,132.21,20.96-16.76,49.55c-.28,.82-1.05,1.34-1.87,1.34Z"/>
  </g>
  <g>
    <path class="cls-3" d="M1660.54,1137.65l-1196.99-1.62c-6.6,0-12-5.4-12-12v-1.4c0-6.6,5.4-12,12-12l1196.99,1.62c6.6,0,12,5.4,12,12v1.4c0,6.6-5.4,12-12,12Z"/>
    <path class="cls-9" d="M1660.54,1139.15h0l-1196.99-1.62c-7.44,0-13.5-6.06-13.5-13.5v-1.4c0-7.44,6.06-13.5,13.5-13.5l1196.99,1.62c7.44,0,13.5,6.06,13.5,13.5v1.4c0,7.44-6.06,13.5-13.5,13.5Zm-1196.99-27.01c-5.79,0-10.5,4.71-10.5,10.5v1.4c0,5.79,4.71,10.5,10.5,10.5l1196.99,1.62c5.79,0,10.5-4.71,10.5-10.5v-1.4c0-5.79-4.71-10.5-10.5-10.5l-1196.99-1.62Z"/>
    <polygon class="cls-3" points="422.71 1612.48 397.3 1612.48 514.41 1136.23 539.82 1136.23 422.71 1612.48"/>
    <path class="cls-9" d="M423.81,1613.89h-28.31l.43-1.75,117.38-477.32h28.31l-.43,1.75-117.38,477.32Zm-24.71-2.82h22.5l116.42-473.42h-22.5l-116.42,473.42Z"/>
    <polygon class="cls-3" points="1656.3 1612.48 1681.7 1612.48 1611.65 1137.65 1586.25 1137.65 1656.3 1612.48"/>
    <path class="cls-9" d="M1683.44,1613.98h-28.44l-.19-1.28-70.31-476.54h28.44l.19,1.28,70.31,476.54Zm-25.85-3h22.37l-69.61-471.82h-22.37l69.61,471.82Z"/>
  </g>
  <g>
    <circle class="cls-7" cx="801.58" cy="559.02" r="96.68" transform="translate(105.26 1244.72) rotate(-79.45)"/>
    <path class="fill-slate-100" d="M801.7,560.73l-57.82-26.72c-.75-.35-1.08-1.24-.73-1.99,.35-.75,1.24-1.08,1.99-.73l56.31,26.03,65.2-42.24c.69-.45,1.62-.25,2.07,.44,.45,.7,.25,1.62-.44,2.07l-66.59,43.14Z"/>
  </g>
  <g>
    <polygon class="cls-3" points="1000.98 956 966.09 1097.29 762.29 1097.29 803.55 956 1000.98 956"/>
    <path class="cls-9" d="M967.26,1098.79h-206.97l42.14-144.28h200.48l-.46,1.86-35.18,142.42Zm-202.97-3h200.62l34.15-138.28h-194.39l-40.38,138.28Z"/>
    <rect class="cls-7" x="701.21" y="1097.29" width="264.7" height="13.35" transform="translate(1667.11 2207.93) rotate(180)"/>
    <path class="cls-9" d="M967.4,1112.14h-267.7v-16.35h267.7v16.35Zm-264.7-3h261.7v-10.35h-261.7v10.35Z"/>
    <path class="cls-9" d="M880.42,1053.48c-.42,0-.84-.02-1.27-.05-4.77-.41-9.04-3.05-12.03-7.43-2.92-4.29-4.26-9.76-3.78-15.39,1.01-11.75,9.72-20.65,19.46-19.8,9.72,.83,16.82,11.07,15.81,22.83-.96,11.24-8.99,19.85-18.2,19.85Zm1.12-39.73c-7.66,0-14.37,7.43-15.2,17.11-.42,4.95,.74,9.73,3.27,13.45,2.47,3.62,5.95,5.8,9.8,6.13,8.06,.67,15.35-6.96,16.22-17.07,.87-10.1-5-18.89-13.08-19.58-.34-.03-.68-.04-1.02-.04Z"/>
  </g>
  <g>
    <path class="fill-blue-500" d="M1238.19,1110.64h0c-24.3,0-44-19.7-44-44v-26.71h88v26.71c0,24.3-19.7,44-44,44Z"/>
    <path class="fill-blue-500" d="M1272.68,1095.5c-.64,0-1.28-.02-1.93-.06l.2-2.99c9.6,.66,18.34-4.14,23.98-13.12,4.97-7.92,6.35-17.6,3.28-23.01-1.1-1.93-2.59-3.03-4.56-3.36-6.11-1.03-15.42,5.75-18.48,8.45l-1.98-2.25c.49-.43,12.19-10.62,20.96-9.16,2.88,.48,5.12,2.11,6.67,4.84,3.64,6.42,2.27,17.15-3.35,26.09-5.87,9.35-14.83,14.59-24.79,14.59Z"/>
    <path class="cls-2" d="M1223.52,1097.89c-.21,0-.42-.05-.62-.16-19.83-10.94-17.44-44.44-17.33-45.86,.06-.71,.69-1.21,1.38-1.18,.71,.06,1.23,.67,1.18,1.38-.03,.33-2.37,33.27,16.01,43.41,.62,.34,.85,1.12,.5,1.74-.23,.42-.67,.66-1.12,.66Z"/>
    <path class="cls-9" d="M1216.32,1032.91c-.39,0-.77-.15-1.06-.44-.58-.59-.58-1.54,0-2.12,7.79-7.73,10.03-10.35,9.89-19.16-.12-7.95-3.78-11.31-7.66-14.88-3.03-2.79-6.17-5.67-7.77-10.69-3.78-11.88,10.91-22.95,11.54-23.41,.67-.5,1.6-.35,2.1,.31,.49,.67,.35,1.6-.31,2.1-.14,.1-13.6,10.25-10.46,20.09,1.35,4.26,4.07,6.75,6.94,9.39,4.17,3.84,8.49,7.81,8.63,17.04,.15,9.97-2.65,13.27-10.78,21.34-.29,.29-.67,.44-1.06,.44Z"/>
    <path class="cls-9" d="M1255.42,1032.91c-.39,0-.77-.15-1.06-.44-.58-.59-.58-1.54,0-2.12,7.79-7.73,10.02-10.35,9.89-19.16-.12-7.95-3.78-11.31-7.66-14.88-3.03-2.79-6.17-5.67-7.77-10.69-3.78-11.88,10.91-22.95,11.54-23.41,.67-.5,1.6-.35,2.1,.31,.49,.67,.35,1.6-.31,2.1-.14,.1-13.6,10.25-10.46,20.09,1.35,4.26,4.07,6.75,6.94,9.39,4.17,3.84,8.49,7.81,8.63,17.04,.15,9.97-2.65,13.27-10.78,21.34-.29,.29-.67,.44-1.06,.44Z"/>
    <path class="cls-9" d="M1234.52,1024.98c-.39,0-.77-.15-1.06-.44-.58-.59-.58-1.54,0-2.12,7.79-7.73,10.02-10.35,9.89-19.16-.12-7.95-3.78-11.31-7.66-14.88-3.03-2.79-6.17-5.67-7.77-10.69-3.78-11.88,10.91-22.95,11.54-23.41,.67-.49,1.6-.35,2.1,.31,.49,.67,.35,1.6-.31,2.1-.14,.1-13.6,10.25-10.46,20.09,1.35,4.26,4.07,6.75,6.94,9.39,4.17,3.84,8.49,7.81,8.63,17.04,.15,9.97-2.65,13.27-10.78,21.34-.29,.29-.67,.44-1.06,.44Z"/>
  </g>
  <g>
    <polygon class="cls-2" points="1303.83 1524.02 1308.94 1573.59 1352.32 1573.59 1358.93 1520.52 1303.83 1524.02"/>
    <path class="cls-9" d="M1353.75,1575.21h-46.28l-5.43-52.7,58.73-3.73-7.03,56.43Zm-43.35-3.24h40.49l6.19-49.7-51.46,3.27,4.78,46.43Z"/>
    <path class="fill-blue-500" d="M1306.56,1571.7s-62.7,19.9-64.86,36.3h112.42v-36.3h-47.56Z"/>
    <polygon class="cls-2" points="1443.92 1518.65 1433.57 1572.57 1476.95 1572.57 1484.73 1520.31 1443.92 1518.65"/>
    <path class="cls-9" d="M1478.35,1574.2h-46.74l10.98-57.22,44.01,1.8-8.25,55.43Zm-42.82-3.24h40.02l7.31-49.09-37.61-1.54-9.72,50.63Z"/>
    <path class="fill-blue-500" d="M1431.19,1570.68s-62.7,19.9-64.86,36.3h112.42v-36.3h-47.56Z"/>
    <polygon class="cls-9" points="1361.06 1602.76 1361.06 1612.37 1480.51 1612.37 1480.51 1601.38 1361.06 1602.76"/>
    <polygon class="cls-9" points="1357.63 1600.97 1357.63 1612.37 1238.19 1612.37 1238.19 1600.14 1357.63 1600.97"/>
    <path class="cls-9" d="M1455.69,1602.87c-.82,0-1.49-.67-1.49-1.49v-21.78c0-.82,.67-1.49,1.49-1.49s1.49,.67,1.49,1.49v21.78c0,.82-.67,1.49-1.49,1.49Z"/>
    <path class="cls-9" d="M1331.06,1603.89c-.82,0-1.49-.67-1.49-1.49v-21.78c0-.82,.67-1.49,1.49-1.49s1.49,.67,1.49,1.49v21.78c0,.82-.67,1.49-1.49,1.49Z"/>
    <path class="cls-9" d="M1503.98,1174.03l-106.28,100.06-22.73,266.82-78.87,1.96s5.4-275.26,13.87-301.07c9-27.44,141.28-192.77,141.28-192.77l182.71-22.4s22.82,73.3,8.2,108.75c-14.63,35.45-148.52,411.17-148.52,411.17l-88.67-4.57,99-367.96Z"/>
    <path class="cls-7" d="M1504.98,1175.27c-.11,0-.23-.01-.35-.04-.74-.19-1.18-.94-.99-1.68l17.33-66.67c.19-.74,.94-1.18,1.68-.99,.74,.19,1.18,.94,.99,1.68l-17.33,66.67c-.16,.62-.72,1.03-1.33,1.03Z"/>
    <polygon class="fill-blue-500" points="1506.84 811.55 1523.52 799.01 1541.15 809.44 1533.41 823.41 1564.88 1010.84 1542.65 1062.02 1516.05 1014.53 1517.67 824.23 1506.84 811.55"/>
    <path class="cls-9" d="M1520.8,629.01c10.18-.69,34.89-2.68,38.02,15.16,3.56,20.35,4.7,47.12,5.06,61.26,.14,5.58-3.82,10.42-9.32,11.38l-61.58,10.78c-5.64,.99-11.12-2.41-12.75-7.9-5.46-18.49-15.16-58.31-13.97-64.73,4.04-21.83,38.42-24.86,54.54-25.95Z"/>
    <path class="cls-2" d="M1554.27,721.99s6.58,47.97,11.76,52.67c5.18,4.7,29.44,13.2,29.44,13.2l-66.95,60.65-53.29-38.6s22.33-14.84,23.52-21.53c1.64-9.25-7.04-55.43-7.04-55.43l62.57-10.96Z"/>
    <path class="cls-9" d="M1528.63,850.44l-56.03-40.59,1.8-1.2c8.43-5.6,22.09-16.13,22.87-20.54,1.57-8.88-6.95-54.43-7.04-54.89-.15-.82,.38-1.6,1.2-1.76,.81-.15,1.6,.38,1.76,1.2,.36,1.9,8.71,46.56,7.04,55.97-1.09,6.18-16.74,17.43-22.38,21.31l50.56,36.62,64.18-58.14c-6.31-2.3-23.17-8.66-27.58-12.66-5.32-4.82-11.13-45.48-12.24-53.58-.11-.82,.46-1.58,1.29-1.69,.82-.11,1.58,.46,1.69,1.29,2.52,18.34,7.8,48.61,11.28,51.76,4.06,3.68,16,12.93,22.66,15.27l3.74,2.9-64.82,58.72Z"/>
    <path class="cls-2" d="M1532.29,742.36c-17.11,5.08-39.5,5.6-46.61,.61-4.17-2.93-8.05-16.71-11.26-32.66-.09-.46-8.64-57.47-8.64-57.47l78.11-13.68s2.86,17.25,5.49,36.69c.12,.87,1.15,1.27,1.82,.71,3.71-3.11,9.06-6.06,10.49,1.14,1.78,8.97-5.29,15.98-9.09,18.65-.4,.28-.61,.75-.55,1.23,1.48,13.78,2.23,25.78,1.09,30.28-.62,2.45-2.25,4.68-4.61,6.67l-16.24,7.84Z"/>
    <path class="cls-9" d="M1503.62,747.97c-8.05,0-15.06-1.14-18.81-3.77-4.01-2.81-7.89-13.8-11.87-33.59-.09-.46-6.65-44.16-8.65-57.55l-.22-1.45,81.05-14.19,.25,1.5c.03,.17,2.83,17.08,5.41,36.04,3.47-2.77,6.37-3.76,8.65-2.96,1.9,.67,3.16,2.49,3.74,5.41,1.71,8.6-4.09,16.19-9.61,20.11,1.76,16.48,2.1,26.53,1.04,30.71-.68,2.66-2.39,5.16-5.1,7.45-.63,.54-1.58,.46-2.12-.18-.54-.63-.46-1.58,.18-2.12,2.22-1.87,3.61-3.86,4.13-5.89,.66-2.6,1.01-9.87-1.12-29.75-.11-1.02,.34-2.03,1.19-2.62,1.06-.75,10.37-7.6,8.47-17.12-.25-1.24-.76-2.79-1.79-3.15-1.26-.44-3.54,.6-6.26,2.88-.73,.61-1.74,.78-2.63,.44-.89-.34-1.52-1.15-1.65-2.09-2.16-15.93-4.49-30.54-5.24-35.14l-75.17,13.16c2.97,19.82,8.28,55.15,8.42,55.98,4.94,24.54,8.79,30.39,10.64,31.69,6.5,4.57,28.53,4.17,45.31-.82,.8-.24,1.63,.22,1.87,1.01,.24,.8-.22,1.63-1.01,1.87-8.71,2.59-19.62,4.17-29.09,4.17Z"/>
    <path class="cls-9" d="M1489.19,695.92c-1.04,0-1.97-.74-2.17-1.8l-.34-1.83c-.22-1.2,.57-2.35,1.76-2.57,1.2-.22,2.35,.57,2.57,1.76l.34,1.83c.22,1.2-.57,2.35-1.76,2.57-.14,.03-.27,.04-.41,.04Z"/>
    <path class="cls-9" d="M1524.18,690.14c-1.06,0-1.99-.77-2.17-1.85l-.3-1.83c-.2-1.2,.62-2.34,1.82-2.53,1.21-.2,2.34,.62,2.54,1.82l.3,1.83c.2,1.2-.62,2.34-1.82,2.53-.12,.02-.24,.03-.36,.03Z"/>
    <path class="cls-9" d="M1515.01,676.68c-.58,0-1.11-.39-1.27-.97-.19-.7,.22-1.43,.93-1.63,.44-.12,10.83-2.92,16.82-.43,.67,.28,.99,1.05,.71,1.73-.28,.67-1.05,1-1.73,.71-5.16-2.14-15.01,.51-15.11,.54-.12,.03-.23,.05-.35,.05Z"/>
    <path class="cls-2" d="M1493.51,679.14s-6.24-2.12-14.69,3.42l14.69-3.42Z"/>
    <path class="cls-9" d="M1478.82,683.89c-.43,0-.85-.21-1.11-.6-.4-.61-.23-1.43,.38-1.83,8.88-5.83,15.56-3.66,15.84-3.57,.69,.24,1.06,.99,.83,1.68-.23,.69-.98,1.06-1.67,.83-.24-.08-5.81-1.8-13.54,3.27-.22,.15-.48,.22-.73,.22Z"/>
    <path class="cls-9" d="M1506.74,709.76s-.04,0-.07,0c-1.67-.06-7.22-.52-8.41-3.72-.89-2.4-.75-3.09,.93-11.49,.36-1.81,.8-3.99,1.33-6.65,.18-.92,1.08-1.51,1.98-1.33,.92,.18,1.51,1.07,1.33,1.98-.52,2.67-.96,4.86-1.33,6.67-1.64,8.15-1.61,8.23-1.08,9.65,.22,.59,2.75,1.41,5.38,1.52,.93,.04,1.66,.82,1.62,1.75-.04,.91-.78,1.62-1.69,1.62Z"/>
    <path class="cls-9" d="M1551.96,696.13s-1.91,2.71-5.94,8.31c-4.65,6.47-57.01,12.55-60.97,11.34-8.74-2.66-7.9-10.05-10.8-8.91-3.6,1.41,6.95,37.4,11.73,41.89,4.77,4.48,42.72-.31,62.21-7.98,16.19-6.37,3.78-44.65,3.78-44.65Z"/>
    <path class="cls-9" d="M1544.71,643.2s-55.36,27.06-85.32,11.16c-29.96-15.89,11.79-24.07,37.44-25.92,25.65-1.85,61.88-2.93,47.88,14.75Z"/>
    <path class="cls-2" d="M1350.71,876.74c22.51,1.64,126.28-80.06,138.86-79.84,1.05,.02,33.15,3.25,33.89,2.78,7.27-4.59,12.88-4.78,17.13-1.48,16.39-5.04,38.93-13.07,39.97-12.88,46.47,8.49,98.65,137.98,101.63,146.86,10.71,31.97-29.21,48.66-29.21,48.66-.36,3.6,12.52,94.41,12.52,94.41l-146.36,4.8h0l-97.88,4.37s11.07-158.04,7.96-203.89c-1.53-22.56-37.53,95.72-69.84,48.88-39.91-57.86-25.48-53.89-8.66-52.67Z"/>
    <path class="cls-9" d="M1419.6,1086.03l.12-1.72c.11-1.58,11.02-158.46,7.96-203.68-.03-.38-.06-.69-.1-.93-1.77,1.98-5.22,8.34-8.32,14.04-10.24,18.86-25.7,47.35-42.65,48.26-6.68,.35-12.9-3.59-18.51-11.72-26.39-38.25-27.62-47.68-25.03-52.17,2.39-4.14,8.38-3.66,15.32-3.09,.8,.06,1.61,.13,2.42,.19h0c.2,.01,.41,.02,.63,.02,13.26,0,53.67-27.12,86.25-48.99,28.5-19.13,46.29-30.88,51.83-30.88,.02,0,.04,0,.06,0,.33,0,1.96,.16,6.93,.63,7.84,.74,23.89,2.23,26.41,2.21,7.11-4.4,13.14-4.96,17.93-1.69,7.61-2.36,16.55-5.35,23.77-7.76,14.23-4.76,15.39-5.08,16.19-4.93,19.93,3.64,42.87,28.55,68.19,74.05,19.88,35.72,33.4,70.19,34.62,73.83,10.08,30.07-22.96,47.23-29.1,50.12,.54,7.6,7.61,58.87,12.48,93.22l.24,1.7-148.07,4.86-99.58,4.45Zm8.38-209.94c.17,0,.33,.02,.5,.06,2,.44,2.18,3.13,2.26,4.27,2.91,42.86-6.65,185.07-7.84,202.39l96.16-4.29,144.66-4.75c-2.1-14.86-12.64-89.58-12.29-93.09l.09-.91,.84-.35c1.58-.66,38.47-16.52,28.34-46.75-1.15-3.44-14.93-38.35-34.39-73.31-24.42-43.87-47.18-68.92-65.86-72.48-1.34,.26-8.21,2.56-14.86,4.79-7.48,2.5-16.78,5.61-24.58,8.01l-.76,.23-.63-.49c-3.89-3.02-8.91-2.5-15.37,1.57-.71,.45-.97,.61-28.04-1.93-3.41-.32-6.36-.6-6.71-.61-.01,0-.02,0-.04,0-4.84,0-27.84,15.43-50.08,30.36-35.24,23.66-75.22,50.47-88.81,49.48-.82-.06-1.64-.13-2.45-.19-5.65-.46-10.99-.89-12.41,1.57-2.71,4.68,5.44,20.67,24.9,48.88,4.96,7.19,10.28,10.7,15.81,10.39,15.23-.81,30.81-29.51,40.11-46.65,6.47-11.92,8.91-16.18,11.42-16.18Zm152.61-89.24h0Z"/>
    <path class="fill-blue-500" d="M1523.45,798.38l-6.86,266.24,6.86-266.24Z"/>
    <path class="cls-9" d="M1516.59,1066.06h-.04c-.8-.02-1.43-.68-1.41-1.48l6.86-266.24c.02-.8,.7-1.44,1.48-1.41,.8,.02,1.43,.68,1.41,1.48l-6.86,266.24c-.02,.78-.66,1.41-1.44,1.41Z"/>
    <polygon class="fill-blue-500" points="1506.88 812.15 1523.57 799.61 1542.46 808.26 1530.62 824.94 1542.55 991.84 1520.32 1043.01 1493.72 995.53 1517.72 824.83 1506.88 812.15"/>
    <path class="cls-2" d="M1574.71,871.32s21.77,48.13,16.77,56.7c-5,8.56-107.73,17.81-107.73,17.81l5.59,42.67s99.85,10.25,154.68-8.97l-69.31-108.21Z"/>
    <path class="cls-9" d="M1549.03,992.6c-32.95,0-59.32-2.63-59.84-2.69l-1.12-.12-5.93-45.26,1.48-.13c.26-.02,25.96-2.35,51.94-5.69,48.17-6.19,54.04-10.31,54.69-11.42,3.37-5.78-8.54-37.04-16.84-55.39-.32-.72,0-1.56,.71-1.88,.72-.32,1.56,0,1.88,.71,2.26,5,21.92,49.06,16.7,58-.95,1.63-3.48,5.96-56.79,12.81-22.47,2.89-44.73,5.02-50.57,5.56l5.25,40.08c11.13,1.04,102.15,8.81,152.95-9,.74-.26,1.55,.13,1.81,.87,.26,.74-.13,1.55-.87,1.81-26.61,9.33-64.03,11.73-95.46,11.73Z"/>
    <polygon class="cls-2" points="1523.45 798.38 1555.35 814.95 1593.98 786.41 1573.08 778.12 1523.45 798.38"/>
    <polygon class="cls-2" points="1523.45 798.38 1502.27 817.94 1472.14 805.47 1483.32 792.91 1523.45 798.38"/>
    <path class="cls-9" d="M1597.05,786.01l-23.98-9.51-49.88,20.36-40.43-5.14-14.55,15.37,32.64,12.61,22.7-19.57,31.94,16.59,41.56-30.71Zm-96.88,30.17l-26.56-10.26,10.42-11,35.57,4.52-19.42,16.74Zm26.85-17.64l46.06-18.8,17.82,7.07-35.7,26.37-28.18-14.64Z"/>
    <polygon class="cls-2" points="1496.71 851.21 1497.35 860.3 1463.75 862.72 1463.1 853.6 1496.71 851.21"/>
    <path class="cls-9" d="M1462.35,864.33l-.86-12.13,36.61-2.6,.86,12.1-36.61,2.63Zm2.35-9.34l.43,6.12,30.61-2.2-.43-6.1-30.61,2.18Z"/>
    <polygon class="cls-3" points="1271.41 821.48 1306.31 962.76 1510.11 962.76 1468.85 821.48 1271.41 821.48"/>
    <path class="cls-9" d="M1512.11,964.26h-206.97l-.28-1.14-35.36-143.14h200.48l.31,1.08,41.82,143.2Zm-204.62-3h200.62l-40.38-138.28h-194.39l34.16,138.28Z"/>
    <rect class="cls-7" x="1306.49" y="962.76" width="264.7" height="13.35"/>
    <path class="cls-9" d="M1572.69,977.62h-267.7v-16.35h267.7v16.35Zm-264.7-3h261.7v-10.35h-261.7v10.35Z"/>
    <path class="cls-9" d="M1391.98,918.96c-9.21,0-17.23-8.61-18.2-19.85-1.01-11.75,6.08-21.99,15.81-22.83,4.77-.41,9.43,1.46,13.12,5.28,3.61,3.73,5.86,8.89,6.35,14.52h0c.48,5.64-.86,11.1-3.78,15.39-2.99,4.38-7.26,7.02-12.03,7.43-.42,.04-.85,.05-1.27,.05Zm-1.11-39.73c-.34,0-.68,.01-1.02,.04-8.08,.69-13.94,9.48-13.08,19.58,.87,10.1,8.12,17.74,16.22,17.07,3.85-.33,7.34-2.51,9.8-6.13,2.53-3.72,3.7-8.5,3.27-13.45h0c-.42-4.95-2.38-9.46-5.51-12.69-2.78-2.87-6.19-4.42-9.69-4.42Z"/>
    <path class="cls-2" d="M1348.2,979.3s-3.74-24.78-9.12-26.04c-5.38-1.25-3.65,22.04-4.18,22.15-.85,.18-.41-27.32-5.38-28.9-4.97-1.58-4.35,25.49-4.83,25.43-.71-.09,.76-17.42-3.88-21.09-4.64-3.67-2.64,18.8-3.56,18.44-.61-.24,1.54-15.1-3.17-15.9-2.93-.49-6.35,16.93-6.35,16.93,0,0-1.94,11.1,10.2,13.66,3.18,.67,26.42,6.31,30.26-4.69Z"/>
    <path class="cls-9" d="M1333.65,987.43c-4.09,0-9.18-.58-15.48-1.96l-.53-.11c-13.31-2.81-11.31-15.14-11.28-15.27,3.68-18.79,6.89-18.25,7.95-18.07,1.02,.17,1.8,.72,2.41,1.52,.4-2.36,1.07-3.74,2.17-4.27,.51-.24,1.55-.51,2.79,.48,1.27,1.01,2.15,2.72,2.75,4.85,.6-4.81,1.55-7.94,3.13-9.06,.71-.5,1.56-.63,2.37-.37,2.46,.78,3.81,4.7,4.69,11.61,.47-1.99,1.16-3.51,2.16-4.3,.76-.6,1.66-.8,2.6-.59,5.84,1.36,9.27,21.15,10.18,27.19l.05,.34-.11,.33c-1.34,3.84-5.32,7.67-15.86,7.67Zm-19.59-32.59c-1.25,1.16-3.47,8.18-4.96,15.76-.06,.37-1.52,9.78,9.12,12.03l.55,.12c15.74,3.45,25.65,2.17,27.99-3.6-1.75-11.38-5.28-23.9-8-24.53-.11-.02-.14-.02-.23,.05-2.14,1.7-2.12,13.47-2.11,17.34,0,4,0,4.51-1.23,4.77l-.62,.13-.54-.4c-.72-.55-.77-1.09-1.1-6.75-.81-13.9-2.08-21.27-3.78-21.91-1,.63-2.27,4.73-2.81,20.37-.14,4.21-.15,4.29-.72,4.78l-.47,.4-.62-.07c-1.4-.17-1.41-1.07-1.48-4.85-.08-4.26-.27-14.2-3.04-16.5-1.01,1.75-1.04,9.55-1.04,12.59-.01,4.6-.02,5.3-.86,5.87l-.61,.41-.74-.26c-1.08-.42-1.05-1.19-.97-4.07,.21-7.18-.37-11.11-1.72-11.69Z"/>
    <path class="cls-2" d="M1499.72,722.85c-.93,1.26,.14,6.1,4.52,5.42,11.22-1.75,20.76-10.82,18.1-9.94-1.04,.35-8.08,2.75-12.81,3.78-6.43,1.4-8.76-.69-9.81,.73Z"/>
  </g>
  <g>
    <polygon class="cls-5" points="1662 1380.23 1703 1313.23 1775 1346.73 1766.9 1401.23 1662 1380.23"/>
    <path class="cls-9" d="M1768.15,1403.01l-108.55-21.73,42.82-69.97,74.23,34.54-8.5,57.17Zm-103.75-23.83l101.25,20.27,7.7-51.83-69.77-32.46-39.18,64.03Z"/>
    <polygon class="cls-5" points="1573.58 1381.32 1587.49 1339.38 1685.14 1369.74 1665.88 1407.68 1573.58 1381.32"/>
    <path class="cls-9" d="M1666.66,1409.47l-94.99-27.13,14.87-44.82,100.76,31.32-20.63,40.63Zm-91.16-29.16l89.61,25.6,17.9-35.26-94.55-29.39-12.95,39.05Z"/>
    <polygon class="fill-blue-gray-700" points="1561.18 1374.35 1783.9 1374.35 1757.23 1612.41 1586.52 1612.92 1561.18 1374.35"/>
  </g>
  <path class="cls-9" d="M1847.88,1613.98H82.98c-.83,0-1.5-.67-1.5-1.5s.67-1.5,1.5-1.5H1847.88c.83,0,1.5,.67,1.5,1.5s-.67,1.5-1.5,1.5Z"/>
</svg>